<svg id="logo" xmlns="http://www.w3.org/2000/svg" viewBox="0 0 480.2 602.28"><defs><style>.cls-1{fill:#8bb96f;}.cls-2{fill:#f9a17d;}.cls-3{fill:none;stroke:#b984aa;stroke-miterlimit:10;stroke-width:30px;}.cls-4{fill:#69c;}</style></defs><path id="download" class="cls-1" d="M865.8,720.5c6.1,0,10.1-4,10.1-10.1V461.7a11.06,11.06,0,0,0-6.1-10.1c-4.1-2-8.1,0-12.1,2l-70.8,70.8c-4,4-4,12.1,0,16.2s12.1,4,16.2,0L855.7,488V708.4c0,6,4,12.1,10.1,12.1Z" transform="translate(-709.8 -215.02)"/><path id="upstream" class="cls-2" d="M1035.8,628.7l-52.6,52.6V460.9c0-6.1-4-10.1-10.1-10.1s-10.1,4-10.1,10.1V707.5a11.06,11.06,0,0,0,6.1,10.1h4c2,0,6.1-2,8.1-4l70.8-70.8c4-4,4-12.1,0-16.2-4-1.9-12.1-1.9-16.2,2.1Z" transform="translate(-709.8 -215.02)"/><path id="card" class="cls-3" d="M724.8,716.1v-353c0-47.6,33.6-86.1,75-86.1H982.6c19.9,0,39,9.1,53,25.2l47.2,54.3c14.1,16.2,22,38.1,22,60.9V716.1c0,47.6-33.6,86.2-75,86.2h-230C758.4,802.2,724.8,763.7,724.8,716.1Z" transform="translate(-709.8 -215.02)"/><path id="setting" class="cls-4" d="M1034.8,262.2a51.44,51.44,0,0,1-36.6,5.8,98.44,98.44,0,0,0-16.6,27.4,51.85,51.85,0,0,1-1.5,72A99,99,0,0,0,998.4,399a51.94,51.94,0,0,1,62.8,34.3,99.79,99.79,0,0,0,31.8-.7,51.89,51.89,0,0,1,61.6-37.4,101.31,101.31,0,0,0,15.4-28.1,51.74,51.74,0,0,1-.5-68.7,100.18,100.18,0,0,0-14-25.7,51.76,51.76,0,0,1-63.4-38.7,102.12,102.12,0,0,0-34,0,52.72,52.72,0,0,1-23.3,28.2Zm8.3-42.8a118.83,118.83,0,0,1,65.3.4,34.27,34.27,0,0,0,52.2,31.8,118.26,118.26,0,0,1,29,52.3,34.32,34.32,0,0,0,.4,57.4,119.46,119.46,0,0,1-30.2,54.6,34.24,34.24,0,0,0-51,30.9,118.85,118.85,0,0,1-62.9,1.4,34.22,34.22,0,0,0-52-28.4,117.8,117.8,0,0,1-34.2-59.1A34.37,34.37,0,0,0,961,301a120.15,120.15,0,0,1,11.4-26.9,116,116,0,0,1,20.8-26.5,34.13,34.13,0,0,0,32.8-.8,33.64,33.64,0,0,0,17.1-27.4Zm33.8,141.3a25.3,25.3,0,1,0-25.3-25.3,25.27,25.27,0,0,0,25.3,25.3Zm0,17.7a42.9,42.9,0,1,1,42.9-42.9,42.89,42.89,0,0,1-42.9,42.9Z" transform="translate(-709.8 -215.02)"/></svg>